<?xml version="1.0" encoding="UTF-8"?>
<svg id="Layer_2" data-name="Layer 2" xmlns="http://www.w3.org/2000/svg" viewBox="0 0 733.29 733.32">
  <defs>
    <style>
      .cls-1 {
        fill: #1183c6;
      }
    </style>
  </defs>
  <g id="Layer_1-2" data-name="Layer 1">
    <g>
      <path class="cls-1" d="M705.9,284.28c-3.89,5.19-8.17,10.18-12.89,14.9l-229.09,229.09c-53.72,53.72-140.83,53.72-194.55,0L40.28,299.18c-4.72-4.72-9-9.71-12.89-14.9-40.4,53.88-36.12,130.65,12.89,179.65l229.09,229.09c53.72,53.72,140.83,53.72,194.55,0l229.09-229.09c49-49,53.28-125.77,12.89-179.65Z"/>
      <path class="cls-1" d="M463.92,408.44l184.08-184.08L463.92,40.29c-53.72-53.72-140.83-53.72-194.55,0L85.29,224.37l184.08,184.08c53.72,53.72,140.83,53.72,194.55,0ZM310.8,118.39c30.84-30.84,80.85-30.84,111.69,0l105.68,105.68-105.68,105.68c-30.84,30.84-80.85,30.84-111.69,0l-105.68-105.68,105.68-105.68Z"/>
    </g>
  </g>
</svg>